<svg width="26" height="32" viewBox="0 0 26 32" fill="none" xmlns="http://www.w3.org/2000/svg">
<path fill-rule="evenodd" clip-rule="evenodd" d="M4 0C1.79086 0 0 1.79086 0 4V28C0 30.2091 1.79086 32 4 32H22C24.2091 32 26 30.2091 26 28V4C26 1.79086 24.2091 0 22 0H4ZM5.51733 10.4824C5.51733 9.56832 6.25838 8.82727 7.17251 8.82727H19.3104C20.2246 8.82727 20.9656 9.56832 20.9656 10.4824C20.9656 11.3966 20.2246 12.1376 19.3104 12.1376H7.17251C6.25838 12.1376 5.51733 11.3966 5.51733 10.4824ZM5.51742 15.9997C5.51742 15.0856 6.25847 14.3445 7.1726 14.3445H19.3105C20.2247 14.3445 20.9657 15.0856 20.9657 15.9997C20.9657 16.9138 20.2247 17.6549 19.3105 17.6549H7.1726C6.25847 17.6549 5.51742 16.9138 5.51742 15.9997ZM7.1726 19.8618C6.25847 19.8618 5.51742 20.6028 5.51742 21.5169C5.51742 22.4311 6.25847 23.1721 7.1726 23.1721H19.3105C20.2247 23.1721 20.9657 22.4311 20.9657 21.5169C20.9657 20.6028 20.2247 19.8618 19.3105 19.8618H7.1726Z" fill="#0099FF"/>
<path fill-rule="evenodd" clip-rule="evenodd" d="M4 0C1.79086 0 0 1.79086 0 4V28C0 30.2091 1.79086 32 4 32H22C24.2091 32 26 30.2091 26 28V4C26 1.79086 24.2091 0 22 0H4ZM5.51733 10.4824C5.51733 9.56832 6.25838 8.82727 7.17251 8.82727H19.3104C20.2246 8.82727 20.9656 9.56832 20.9656 10.4824C20.9656 11.3966 20.2246 12.1376 19.3104 12.1376H7.17251C6.25838 12.1376 5.51733 11.3966 5.51733 10.4824ZM5.51742 15.9997C5.51742 15.0856 6.25847 14.3445 7.1726 14.3445H19.3105C20.2247 14.3445 20.9657 15.0856 20.9657 15.9997C20.9657 16.9138 20.2247 17.6549 19.3105 17.6549H7.1726C6.25847 17.6549 5.51742 16.9138 5.51742 15.9997ZM7.1726 19.8618C6.25847 19.8618 5.51742 20.6028 5.51742 21.5169C5.51742 22.4311 6.25847 23.1721 7.1726 23.1721H19.3105C20.2247 23.1721 20.9657 22.4311 20.9657 21.5169C20.9657 20.6028 20.2247 19.8618 19.3105 19.8618H7.1726Z" fill="white"/>
</svg>
